<svg width="20" height="20" viewBox="0 0 20 20" fill="none" xmlns="http://www.w3.org/2000/svg">
<path d="M14.8013 0.336914H5.48802C2.6816 0.336914 0.399902 2.61679 0.399902 5.41955V14.7401C0.399902 17.5502 2.67977 19.8228 5.48802 19.8228H14.8013C17.6077 19.8228 19.8894 17.5502 19.8894 14.7401V5.42137C19.8876 2.61861 17.6077 0.336914 14.8013 0.336914ZM14.8013 17.382H5.48802C4.03088 17.382 2.84797 16.1955 2.84797 14.742V5.42137C2.84797 3.96789 4.03088 2.79047 5.48802 2.79047H14.8013C16.2584 2.79047 17.4413 3.96972 17.4413 5.42137V14.742C17.4395 16.1955 16.2566 17.382 14.8013 17.382Z" fill="white"/>
<path d="M10.1446 4.58398C7.11516 4.58398 4.64697 7.05217 4.64697 10.0853C4.64697 13.1093 7.11516 15.5793 10.1446 15.5793C13.1777 15.5793 15.6423 13.1111 15.6423 10.0853C15.6423 7.05217 13.1777 4.58398 10.1446 4.58398ZM10.1446 13.1276C8.46077 13.1276 7.0987 11.7691 7.0987 10.0853C7.0987 8.40144 8.46077 7.03571 10.1446 7.03571C11.823 7.03571 13.1942 8.40327 13.1942 10.0853C13.1942 11.7691 11.823 13.1276 10.1446 13.1276Z" fill="white"/>
<path d="M15.2622 3.55859C14.5363 3.55859 13.9458 4.15644 13.9458 4.87496C13.9458 5.60079 14.5363 6.19864 15.2622 6.19864C15.9843 6.19864 16.5785 5.60079 16.5785 4.87496C16.5767 4.15644 15.9843 3.55859 15.2622 3.55859Z" fill="white"/>
</svg>
