<svg width="24" height="22" viewBox="0 0 24 22" fill="none" xmlns="http://www.w3.org/2000/svg">
<path d="M23.275 0.0391176L0.337066 9.32236C-0.0997139 9.4996 -0.115974 10.1295 0.311513 10.3283L5.38327 12.7018C5.52034 12.7665 5.6249 12.8886 5.66904 13.0371L7.84597 20.1744C7.95516 20.5336 8.378 20.6749 8.67074 20.4474L12.4577 17.5063C12.6389 17.365 12.8852 17.3602 13.0734 17.4895L19.4253 21.906C19.7413 22.1263 20.1734 21.9395 20.2431 21.5515L23.9906 0.645067C24.0672 0.225932 23.663 -0.118956 23.275 0.0391176ZM9.37469 13.7149L8.68933 17.7242L6.92362 11.9809L19.035 4.23047L9.37469 13.7149Z" fill="white"/>
</svg>
