<svg width="22" height="15" viewBox="0 0 22 15" fill="none" xmlns="http://www.w3.org/2000/svg">
<path d="M21.7725 3.23884C21.7725 3.23884 21.5449 1.77375 20.9 1.1252C20.0652 0.273485 19.1174 0.273485 18.7 0.238323C15.6275 0.03386 11 0 11 0C11 0 6.37246 0.03386 3.3 0.238323C2.88261 0.272183 1.93478 0.306043 1.1 1.1252C0.417391 1.77244 0.227533 3.23884 0.227533 3.23884C0.227533 3.23884 0 4.97743 0 6.71601V8.31785C0 10.0564 0.227533 11.7612 0.227533 11.7612C0.227533 11.7612 0.455072 13.2263 1.1 13.8748C1.93478 14.7265 3.03478 14.6927 3.52754 14.7955C5.27246 14.9661 11 15 11 15C11 15 15.6275 15 18.7 14.7617C19.1174 14.7278 20.0652 14.694 20.9 13.8748C21.5449 13.2276 21.7725 11.7612 21.7725 11.7612C21.7725 11.7612 22 10.0226 22 8.31785V6.71601C22 4.97743 21.7725 3.23884 21.7725 3.23884ZM8.34493 11.4538V4.05669L15.5522 7.8399L8.34493 11.4538Z" fill="white"/>
</svg>
